HIERARCHY
ROOT Hips
{
  OFFSET 0 0 0
  CHANNELS 6 Xposition Yposition Zposition Zrotation Yrotation Xrotation
  JOINT LeftThigh
  {
    OFFSET 8.409438 0 -5.917753
    CHANNELS 3 Zrotation Yrotation Xrotation
    JOINT LeftLeg
    {
      OFFSET 0 0 -42.358652
      CHANNELS 3 Zrotation Yrotation Xrotation
      JOINT LeftFoot
      {
        OFFSET 0 0 -39.357303
        CHANNELS 3 Zrotation Yrotation Xrotation
      }
    }
  }
  JOINT RightThigh
  {
    OFFSET -8.409438 0 -5.917753
    CHANNELS 3 Zrotation Yrotation Xrotation
    JOINT RightLeg
    {
      OFFSET 0 0 -42.358652
      CHANNELS 3 Zrotation Yrotation Xrotation
      JOINT RightFoot
      {
        OFFSET 0 0 -39.357303
        CHANNELS 3 Zrotation Yrotation Xrotation
      }
    }
  }
  JOINT SpineLow
  {
    OFFSET 0 0 4.719101
    CHANNELS 3 Zrotation Yrotation Xrotation
    JOINT SpineMid
    {
      OFFSET 0 0 12.899191
      CHANNELS 3 Zrotation Yrotation Xrotation
      JOINT Chest
      {
        OFFSET 0 0 12.899191
        CHANNELS 3 Zrotation Yrotation Xrotation
        JOINT LeftShoulder
        {
          OFFSET 7.550562 1.41573 9.438202
          CHANNELS 3 Zrotation Yrotation Xrotation
          JOINT LeftArm
          {
            OFFSET 9.155056 0 4.247191
            CHANNELS 3 Zrotation Yrotation Xrotation
            JOINT LeftForearm
            {
              OFFSET 0 0 25.771955
              CHANNELS 3 Zrotation Yrotation Xrotation
              JOINT LeftHand
              {
                OFFSET 0 0 25.197169
                CHANNELS 3 Zrotation Yrotation Xrotation
              }
            }
          }
        }
        JOINT RightShoulder
        {
          OFFSET -7.550562 1.41573 9.438202
          CHANNELS 3 Zrotation Yrotation Xrotation
          JOINT RightArm
          {
            OFFSET -9.155056 0 4.247191
            CHANNELS 3 Zrotation Yrotation Xrotation
            JOINT RightForearm
            {
              OFFSET 0 0 -25.771955
              CHANNELS 3 Zrotation Yrotation Xrotation
              JOINT RightHand
              {
                OFFSET 0 0 -25.197169
                CHANNELS 3 Zrotation Yrotation Xrotation
              }
            }
          }
        }
        JOINT Neck
        {
          OFFSET 0 0 15.101124
          CHANNELS 3 Zrotation Yrotation Xrotation
          JOINT Head
          {
            OFFSET 0 0 11.325843
            CHANNELS 3 Zrotation Yrotation Xrotation
            End Site
            {
              OFFSET 0 0 14.157303
            }
          }
        }
      }
    }
  }
}
MOTION
Frames: 13
Frame Time: 0.0
0.0  101.685394  0.0  0.960719  6.792206  -99.002402  32.421182  -26.450743  25.817885  -15.115501  5.133048  21.758261  -8.520122  -6.212201  -6.125425  4.304295  -3.558977  -31.280578  13.760883  1.575641  58.821593  19.968125  6.817915  4.770889  -0.42398  1.145652  3.481158  -0.992083  3.184946  9.501736  -0.992083  3.184946  9.501736  -9.163706  26.51497  1.392571  147.558363  67.19575  -154.173313  -38.31775  -35.09592  89.678536  38.657244  -24.078029  17.410937  16.35547  -7.783522  18.988642  65.376098  55.241491  20.414578  -31.63562  5.795348  -110.987432  64.844534  25.290518  21.06536  5.86814  -3.460797  -0.904315  4.394651  -2.604569  -0.644833  
0.0  101.685394  0.0  0.654157  7.370338  -99.147855  32.235839  -26.570227  25.964454  -13.87707  4.664788  21.394358  -9.217672  -6.49667  -6.474863  3.12113  -3.639874  -31.23729  13.01344  2.120207  58.591205  20.60733  6.791977  5.055129  -0.503937  1.086912  3.463302  -1.21949  3.03593  9.44957  -1.21949  3.03593  9.44957  -9.02382  26.477236  1.638358  148.093893  66.984432  -153.621563  -38.204781  -34.870918  89.373482  38.432384  -23.435975  17.777231  16.096621  -7.80582  19.079515  65.104652  54.852652  19.721856  -31.613998  5.965623  -110.810319  65.222843  25.170256  21.203364  5.690393  -3.581721  -0.745515  4.262037  -2.69351  -0.525619  
0.0  101.685394  0.0  0.152953  8.411871  -99.001487  31.874099  -26.793845  25.715173  -12.623293  4.184772  20.996303  -10.14982  -6.747225  -6.792352  1.736373  -3.754288  -31.457613  11.871476  2.973432  58.394049  21.537289  6.789665  5.254553  -0.597454  0.981169  3.41331  -1.491789  2.759853  9.310011  -1.491789  2.759853  9.310011  -9.390638  26.393723  1.811584  148.619274  66.804824  -153.090713  -38.058398  -34.650713  88.993882  38.204332  -22.792738  18.107941  15.469351  -7.782747  19.11987  64.865789  54.371705  19.005154  -31.636471  6.171979  -110.540423  65.682457  25.040921  21.313303  5.312906  -3.671651  -0.611572  3.979641  -2.759303  -0.426601  
0.0  101.685394  0.0  -0.167357  9.435928  -99.069458  31.480822  -27.155911  25.761576  -11.590319  3.795377  20.592869  -11.102477  -6.956464  -7.096958  0.378806  -3.579175  -31.558661  10.483513  3.863205  58.165759  22.315593  6.77044  5.461929  -0.760755  0.907212  3.387334  -1.948725  2.58036  9.233643  -1.948725  2.58036  9.233643  -9.313358  26.427104  2.015404  149.230964  66.678311  -152.478214  -37.787602  -34.57257  88.555982  38.159208  -22.354117  18.253285  15.31451  -7.65572  19.248501  64.489441  53.8788  18.164342  -31.755484  6.431144  -110.246474  66.164173  24.85029  21.478212  5.138644  -3.696327  -0.462521  3.849847  -2.776367  -0.315678  
0.0  101.685394  0.0  -0.359255  10.455326  -99.178908  31.043018  -27.542816  25.89448  -10.987705  3.559832  20.197283  -11.934491  -7.108381  -7.370277  0.349077  -3.463156  -31.01771  8.071125  5.511839  57.303115  22.983831  6.694957  5.756129  -0.87482  0.855486  3.391177  -2.266951  2.455299  9.240992  -2.266951  2.455299  9.240993  -9.715669  26.232738  2.076902  149.924172  66.423251  -151.859822  -37.573235  -34.703354  88.211021  38.308387  -22.236043  18.266646  14.939226  -7.549537  19.277273  64.344224  53.329496  17.465924  -31.961994  6.767316  -109.826688  66.687037  24.727018  21.549816  4.86845  -3.722641  -0.398015  3.647627  -2.795361  -0.268734  
0.0  101.685394  0.0  -0.510682  11.077674  -99.289129  30.926797  -27.998489  25.984822  -10.949312  3.521323  19.770045  -12.518745  -7.196305  -7.588164  -0.663346  -3.27136  -31.101861  6.952464  5.973071  56.959627  23.177053  6.594024  6.036058  -0.996888  0.804364  3.381683  -2.607407  2.332529  9.212023  -2.607407  2.332528  9.212023  -9.675774  26.273677  2.158758  150.277316  66.316134  -151.576575  -37.452053  -34.921553  87.943455  38.608133  -22.404675  18.180613  14.904901  -7.319781  19.41637  63.911404  52.880004  16.592016  -32.166414  7.11412  -109.499551  67.093785  24.479967  21.634221  4.764662  -3.653114  -0.326574  3.570331  -2.742579  -0.216347  
0.0  101.685394  0.0  -0.536797  11.687415  -99.305678  30.719896  -28.311818  26.084394  -11.517634  3.714744  19.267317  -12.631113  -7.210449  -7.77762  -1.796507  -3.08199  -31.194081  6.168171  6.174598  56.56035  23.058934  6.502867  6.297067  -1.143662  0.78042  3.345752  -3.012455  2.286009  9.109335  -3.012455  2.286009  9.109335  -9.188829  26.32061  2.405011  150.510873  66.169561  -151.384697  -37.363939  -35.158737  87.925024  38.902249  -22.735051  18.043744  15.290714  -7.101799  19.751873  63.851777  52.418113  16.095243  -32.687047  7.454776  -109.121029  67.504562  24.288401  21.759778  4.967879  -3.548499  -0.206625  3.723517  -2.663262  -0.12605  
0.0  101.685394  0.0  -0.539799  11.753286  -99.37331  30.910668  -28.7012  26.2424  -12.557542  4.190101  18.734555  -12.205228  -7.165189  -7.841464  -2.614722  -3.087693  -31.126124  5.703483  6.185857  56.063798  22.691813  6.438565  6.517536  -1.200187  0.759008  3.328898  -3.170187  2.23459  9.062115  -3.170187  2.23459  9.062116  -9.094052  26.334702  2.453978  150.817066  66.161663  -151.238588  -37.365107  -35.475535  87.845378  39.064913  -23.137462  17.887821  15.389022  -6.942246  19.93423  63.507588  52.082867  15.443403  -32.868573  7.767597  -108.861463  67.781404  24.05207  21.896618  4.953862  -3.425491  -0.183998  3.713257  -2.570809  -0.110169  
0.0  101.685394  0.0  -0.356567  11.966753  -99.228155  31.072046  -29.038942  25.873576  -14.09321  5.004846  18.527439  -11.529056  -7.082908  -7.895129  -3.773941  -3.033988  -31.124205  5.477287  6.171281  55.446333  22.26189  6.400939  6.70912  -1.199445  0.779131  3.323645  -3.165638  2.289114  9.046942  -3.165638  2.289113  9.046941  -9.405725  26.145632  2.306113  150.912418  66.14806  -151.222603  -37.381111  -35.642819  87.981741  39.280984  -23.494293  17.617441  15.078746  -6.923886  19.85806  63.504434  51.714045  15.176459  -33.151303  8.005717  -108.668031  68.025454  23.887765  22.027628  4.810057  -3.374647  -0.299185  3.604847  -2.533526  -0.19775  
0.0  101.685394  0.0  -0.262942  11.574924  -99.098708  31.559531  -29.118951  25.828205  -15.043332  5.528739  18.171625  -10.771783  -6.997332  -7.875895  -4.552112  -3.255631  -31.021047  5.374666  6.258444  54.726625  21.875078  6.360098  6.831379  -1.151663  0.791366  3.308785  -3.034155  2.315304  9.007554  -3.034155  2.315304  9.007554  -9.592941  25.973001  2.108388  151.03543  66.274637  -151.243907  -37.456672  -35.842659  87.957771  39.183095  -23.899531  17.478845  14.984206  -6.927256  19.794119  63.29153  51.416361  14.701263  -33.258007  8.316323  -108.463293  68.213465  23.633619  22.227784  4.706567  -3.314675  -0.409823  3.526717  -2.489337  -0.281748  
0.0  101.685394  0.0  -0.164521  11.101981  -98.987426  32.082281  -29.117722  25.705266  -15.474404  5.896995  18.03117  -10.449528  -6.937886  -7.903991  -5.305715  -3.500439  -30.834476  5.204837  6.533229  53.913053  21.61462  6.335707  6.918015  -1.066201  0.811291  3.299471  -2.79863  2.357662  8.984471  -2.79863  2.357663  8.984472  -9.704815  25.789  1.959176  150.907106  66.403677  -151.384483  -37.463192  -35.896239  88.093058  39.111307  -24.308394  17.224346  14.778126  -6.960077  19.721882  63.282896  51.112777  14.448269  -33.437824  8.590337  -108.293498  68.287877  23.461365  22.322898  4.569493  -3.289182  -0.519788  3.423381  -2.470937  -0.365141  
0.0  101.685394  0.0  -0.060351  10.620473  -98.891137  32.669978  -29.045478  25.537035  -15.361853  6.036252  18.07855  -10.515682  -6.875542  -7.924457  -6.092614  -3.707347  -30.608203  4.917089  6.923495  53.022872  21.664508  6.372902  7.053612  -1.028843  0.824234  3.263977  -2.696288  2.386501  8.888363  -2.696288  2.386501  8.888364  -9.601929  25.721046  1.873123  150.801027  66.634716  -151.608122  -37.528032  -35.959754  87.955396  38.973755  -24.771891  17.006671  14.795697  -6.908961  19.775216  63.166556  50.812607  14.05877  -33.48244  8.854938  -108.110879  68.433797  23.237438  22.49729  4.547171  -3.204333  -0.512578  3.406802  -2.407222  -0.360492  
0.0  101.685394  0.0  0.045882  10.28195  -98.792975  33.200218  -28.882374  25.287505  -15.293128  5.944475  18.12816  -10.576271  -6.646578  -7.880439  -6.996191  -3.912926  -30.350262  4.474784  7.550723  52.048028  22.282951  6.495158  7.260799  -0.976074  0.840128  3.217829  -2.551934  2.421061  8.76364  -2.551934  2.421061  8.76364  -9.51369  25.638178  1.915423  150.055912  66.839255  -152.164658  -37.583002  -36.109034  87.675513  38.854526  -25.261448  16.7445  14.620078  -6.966907  19.843745  63.246411  50.470841  14.012472  -33.592034  9.061231  -107.927388  68.565253  23.11631  22.547451  4.4301  -3.150246  -0.444535  3.319446  -2.366054  -0.31048  
